#!OML:ASF I:\Actors\actors\Patient Classification 2\Patient 1\Session 1\actor1.ASF
:FULLY-SPECIFIED
:DEGREES
482
root -1.51232 18.0663 6.01072 0.062773 12.5137 -6.09475
lowerback 10.6704 3.69738 6.16911
upperback 0.473263 5.67104 0.155716
thorax -4.89294 2.66211 -4.09944
lowerneck -5.41872 -12.175 -11.0518
upperneck 1.82219 -16.0518 11.6609
head 3.25357 -7.8064 4.31755
rclavicle -4.64659e-014 5.76476e-015
rhumerus -5.28475 29.9915 -64.1502
rradius 99.9367
rwrist -5.59034
rhand -5.7147 -20.1219
rfingers 7.12502
rthumb 20.1066 -49.1015
lclavicle -4.64659e-014 5.76476e-015
lhumerus -46.526 -12.6808 86.0141
lradius 79.9372
lwrist 13.3142
lhand -4.29949 -21.7085
lfingers 7.12502
lthumb 21.4663 7.12217
rfemur 15.4742 -8.64245 24.1765
rtibia -9.40018
rfoot -16.8027 -16.9321
rtoes 0.221006
lfemur 17.8312 -9.18377 -8.43669
ltibia -27.3916
lfoot 7.74518 10.1627
ltoes -19.2502
483
root -1.51444 18.0666 6.0055 0.0459575 12.2238 -6.15763
lowerback 10.704 3.63171 6.14002
upperback 0.527644 5.58257 0.197139
thorax -4.87093 2.62151 -4.02921
lowerneck -5.63888 -12.2408 -11.1164
upperneck 2.37301 -16.1574 11.618
head 3.46722 -7.84639 4.27351
rclavicle -4.22914e-014 4.37326e-015
rhumerus -5.31788 29.9925 -64.267
rradius 99.8204
rwrist -5.5234
rhand -5.89146 -20.203
rfingers 7.12502
rthumb 19.9367 -49.2004
lclavicle -4.22914e-014 4.37326e-015
lhumerus -46.3254 -12.7025 86.0109
lradius 79.9223
lwrist 13.1908
lhand -4.37477 -21.7429
lfingers 7.12502
lthumb 21.394 7.09592
rfemur 15.4557 -8.40165 24.2518
rtibia -9.39979
rfoot -16.7867 -16.8832
rtoes 0.328565
lfemur 17.8889 -9.14224 -8.38696
ltibia -27.3341
lfoot 7.56671 10.4153
ltoes -18.6871
484
root -1.51587 18.0654 6.0011 -0.00489681 11.9184 -6.17116
lowerback 10.7847 3.56252 6.06509
upperback 0.579624 5.48609 0.217084
thorax -4.88048 2.57635 -3.95902
lowerneck -5.7668 -12.3621 -11.1741
upperneck 2.84941 -16.3467 11.6443
head 3.65915 -7.92946 4.24773
rclavicle 3.33461e-014 -9.54166e-015
rhumerus -5.40546 30.0124 -64.3909
rradius 99.7706
rwrist -5.45688
rhand -5.96603 -20.1157
rfingers 7.12502
rthumb 19.865 -49.1204
lclavicle 3.33461e-014 -9.54166e-015
lhumerus -46.1617 -12.82 85.9994
lradius 79.9786
lwrist 13.1689
lhand -4.46751 -21.6877
lfingers 7.12502
lthumb 21.305 7.16123
rfemur 15.4862 -8.14855 24.2717
rtibia -9.40691
rfoot -16.7713 -16.8553
rtoes 0.72669
lfemur 18.0209 -9.14688 -8.40813
ltibia -27.3095
lfoot 7.46878 10.6558
ltoes -18.2464
485
root -1.52182 18.065 5.99081 0.0393471 11.7256 -6.17619
lowerback 10.9063 3.42731 6.04101
upperback 0.566131 5.31141 0.195345
thorax -4.98146 2.48596 -3.9568
lowerneck -5.87361 -12.4832 -11.2804
upperneck 3.31602 -16.54 11.7438
head 3.85649 -8.01313 4.25076
rclavicle -9.64106e-015 2.46493e-014
rhumerus -5.51765 30.0389 -64.5674
rradius 99.7531
rwrist -5.42709
rhand -6.01381 -20.0135
rfingers 7.12502
rthumb 19.8191 -49.023
lclavicle -9.64106e-015 2.46493e-014
lhumerus -46.0151 -12.9305 85.8956
lradius 80.0902
lwrist 13.1963
lhand -4.41485 -21.6505
lfingers 7.12502
lthumb 21.3555 7.19274
rfemur 15.3981 -8.00554 24.3138
rtibia -9.42656
rfoot -16.7438 -16.8425
rtoes 1.1752
lfemur 17.9942 -9.10269 -8.39536
ltibia -27.3076
lfoot 7.5202 10.7527
ltoes -18.2471
486
root -1.53263 18.066 5.97546 0.14963 11.6365 -6.18035
lowerback 11.004 3.28071 5.98145
upperback 0.544395 5.11709 0.196082
thorax -5.08503 2.38675 -3.90654
lowerneck -5.9555 -12.6202 -11.4358
upperneck 3.65681 -16.7499 11.9193
head 4.02559 -8.10511 4.2857
rclavicle 5.31749e-015 3.97569e-016
rhumerus -5.51393 30.0602 -64.5451
rradius 99.77
rwrist -5.51611
rhand -6.05336 -20.1045
rfingers 7.12502
rthumb 19.7811 -49.1179
lclavicle 5.31749e-015 3.97569e-016
lhumerus -45.7984 -13.0481 85.8098
lradius 80.1841
lwrist 13.2321
lhand -4.37072 -21.6941
lfingers 7.12502
lthumb 21.3979 7.14428
rfemur 15.2348 -7.9657 24.3811
rtibia -9.45557
rfoot -16.6567 -16.859
rtoes 0.895357
lfemur 17.8426 -9.00474 -8.34326
ltibia -27.3197
lfoot 7.66022 10.7089
ltoes -18.6888
